<svg xmlns="http://www.w3.org/2000/svg" id="line" width="512" height="512" viewBox="0 0 64 64" class="hovered-paths"><g><rect x="25" y="55" width="38" height="8" rx="3" style="fill:#54CADC" data-original="#C4A2FC" class="hovered-path active-path" data-old_color="#C4A2FC"></rect><path d="M44.172,33a1,1,0,0,1,.707.293l6.828,6.828A2.978,2.978,0,0,0,53.828,41H57a3,3,0,0,0,3-3V34.414l-6.707-6.707a1,1,0,0,1,1.414-1.414L60,31.586V26A7.011,7.011,0,0,0,55.1,19.32l4.612-4.613A1,1,0,0,0,59,13H44A16.019,16.019,0,0,0,28,29V50a3,3,0,0,0,3,3H59a1,1,0,0,0,.707-1.707L43.121,34.707a.984.984,0,0,1-.217-1.09C43.243,32.809,44.068,33.041,44.172,33Z" style="fill:#54CADC" data-original="#C4A2FC" class="hovered-path active-path" data-old_color="#C4A2FC"></path><path d="M50,17H43V8a3,3,0,0,0-3-3H20a1,1,0,0,1-1-1,3,3,0,0,0-3-3H4A3,3,0,0,0,1,4V44a7.028,7.028,0,0,0,7,7H44a7.009,7.009,0,0,0,7-7V18A1,1,0,0,0,50,17ZM5,10V47.974A4.977,4.977,0,0,1,3,44V4A1,1,0,0,1,4,3H16a1,1,0,0,1,1,1,3,3,0,0,0,3,3H40a1,1,0,0,1,1,1v9H39V14a1,1,0,0,0-1-1H35V10a1,1,0,0,0-1-1H6A1,1,0,0,0,5,10Zm4,4V48.9a5,5,0,0,1-2,0V11H33v2H10A1,1,0,0,0,9,14Zm2,33.974V15H37v2H14a1,1,0,0,0-1,1V44A4.977,4.977,0,0,1,11,47.974ZM49,44a5.006,5.006,0,0,1-5,5H12.9A6.98,6.98,0,0,0,15,44V19H49Z" style="fill:#151A6A" data-original="#151A6A" class="" data-old_color="#151A6A"></path></g> </svg>