<svg xmlns="http://www.w3.org/2000/svg" id="Line" height="512" viewBox="0 0 64 64" width="512" class=""><g><path d="m62.178 39.443-14.971-15.8a2 2 0 0 0 -3.452 1.375v5.49h-21a3 3 0 0 0 -3 3v16a3 3 0 0 0 3 3h21v5.492a2 2 0 0 0 3.451 1.375l14.973-15.8a3 3 0 0 0 -.001-4.132zm-7.378 2.772-5.342 5.342a1 1 0 0 1 -1.414-1.414l3.636-3.636h-26.925a1 1 0 0 1 0-2h26.929l-3.636-3.636a1 1 0 0 1 1.414-1.414l5.338 5.343a1 1 0 0 1 0 1.415z" fill="#c4a2fc" data-original="#C4A2FC" class="active-path" style="fill:#54CADC" data-old_color="#c4a2fc"></path><g fill="#151a6a"><path d="m47.58 4h-40.98a2.991 2.991 0 0 0 -2.985 2.7l-2.6 26a3 3 0 0 0 2.985 3.3h40.981a2.988 2.988 0 0 0 2.984-2.7l1.925-19.245.676-6.755a3 3 0 0 0 -2.986-3.3zm1 3.1-.57 5.694a7.95 7.95 0 0 1 -6.151-6.794h5.721a1 1 0 0 1 .996 1.1zm-1.795 17.9a10.015 10.015 0 0 0 -9.944 9h-25.1a9.964 9.964 0 0 0 -7.963-8.8l1.022-10.2a10.014 10.014 0 0 0 9.94-9h25.1a9.951 9.951 0 0 0 7.964 8.8zm-40.185-19h6.12a8 8 0 0 1 -7.72 6.99l.605-6.09a1 1 0 0 1 .995-.9zm-3.6 26.9.57-5.695a7.962 7.962 0 0 1 6.151 6.795h-5.721a1 1 0 0 1 -.995-1.1zm41.981 1.1h-6.121a8 8 0 0 1 7.724-6.99l-.609 6.09a1 1 0 0 1 -.994.9z" data-original="#151A6A" class="" style="fill:#151A6A" data-old_color="#151A6A"></path><path d="m25.79 12.049a8 8 0 1 0 8 8 8.009 8.009 0 0 0 -8-8zm0 14a6 6 0 1 1 6-6 6.007 6.007 0 0 1 -6 6z" data-original="#151A6A" class="" style="fill:#151A6A" data-old_color="#151A6A"></path></g></g> </svg>