<svg id="Capa_1" enable-background="new 0 0 512 512" height="512" viewBox="0 0 512 512" width="512" xmlns="http://www.w3.org/2000/svg"><g><g><path d="m480.896 267.825c-3.781 0-7.573.669-11.145 1.984-.857-20.049-16.048-30.527-31.062-30.527-4.413 0-8.839.909-12.914 2.695-4.543-13.607-16.974-20.667-29.293-20.667-3.767 0-7.543.665-11.104 1.969v-21.746-174.128c.001-15.111-12.293-27.405-27.403-27.405h-229.914c-15.11 0-27.404 12.294-27.404 27.405v86.829h-90.657c-5.522 0-10 4.478-10 10.001v148.589c0 5.523 4.478 10.001 10 10.001h90.656v136.547c0 15.111 12.294 27.406 27.404 27.406h189.68c12.312 15.154 12.319 28.327 12.319 44.763 0 11.282 9.179 20.46 20.46 20.46h17.603c5.522 0 10-4.478 10-10.001s-4.478-10.001-10-10.001h-17.602c-.232 0-.46-.228-.46-.459 0-19.066 0-38.782-19.7-60.785-4.668-5.212-10.477-9.452-16.093-13.553-10.623-7.753-17.072-12.948-17.072-19.694l-.028-31.456v-41.492c.058-2.843.687-4.939 1.688-5.614 1.309-.883 4.719-.971 9.384.825 9.072 3.488 14.935 12.064 14.935 21.846v31.833c0 5.523 4.478 10.001 10 10.001s10-4.478 10-10.001v-31.833-140.083c0-11.738 9.243-12.333 11.096-12.333 2.931 0 5.724 1.046 7.663 2.869 2.288 2.152 3.448 5.336 3.448 9.463v115.538c0 5.523 4.478 10.001 10 10.001s10-4.478 10-10.001v-63.438c0-11.728 9.249-12.322 11.104-12.322 2.93 0 5.722 1.045 7.659 2.866 2.285 2.149 3.444 5.33 3.444 9.456v74.039c0 5.523 4.478 10.001 10 10.001s10-4.478 10-10.001v-56.069c0-11.727 9.249-12.321 11.104-12.321 2.93 0 5.722 1.044 7.659 2.865 2.285 2.15 3.444 5.33 3.444 9.456v66.641c0 5.523 4.478 10.001 10 10.001s10-4.478 10-10.001v-38.097c0-11.728 9.249-12.322 11.104-12.322 2.93 0 5.722 1.045 7.659 2.866 2.285 2.149 3.444 5.33 3.444 9.456v100.784c-1.605 14.202-4.926 20.653-8.137 26.895-3.859 7.501-7.851 15.259-7.851 31.37v32.343c0 .219-.24.459-.459.459h-17.605c-5.522 0-10 4.478-10 10.001s4.478 10.001 10 10.001h17.604c11.281 0 20.459-9.178 20.459-20.46v-32.343c0-11.267 2.241-15.624 5.635-22.219 3.702-7.197 8.311-16.153 10.294-34.413.039-.358.059-.72.059-1.08v-101.337c-.001-21.219-15.648-32.323-31.105-32.323zm-295.951-247.824h116.145v10.692c0 5.927-4.81 10.749-10.721 10.749h-94.703c-5.911 0-10.721-4.822-10.721-10.749zm-164.945 114.234h27.968c-3.567 13.785-14.324 24.663-27.968 28.296zm0 128.588v-28.296c13.644 3.633 24.401 14.511 27.968 28.296zm0-48.739v-31.111c24.683-4.242 44.196-23.893 48.387-48.739h144.349v128.588h-144.349c-4.191-24.844-23.704-44.495-48.387-48.738zm108.061 212.692c-4.083 0-7.404-3.321-7.404-7.405v-23.022h156.537l.001 1.168c0 13.066 7.916 22.091 16.629 29.258h-165.763zm237.318-255.605c-3.562-1.306-7.342-1.971-11.111-1.971-8.084 0-15.669 2.947-21.356 8.299-4.442 4.181-9.739 11.744-9.739 24.035v103.472c-2.413-1.529-5.002-2.842-7.754-3.901-10.628-4.09-20.481-3.641-27.748 1.261-4.677 3.155-10.295 9.522-10.503 21.937-.001.056-.001.111-.001.167v41.592l.009 10.287h-156.52v-93.524h92.08v14.547c0 5.523 4.478 10.001 10 10.001s10-4.478 10-10.001v-197.685c0-5.523-4.478-10.001-10-10.001s-10 4.478-10 10.001v14.547h-92.08v-86.829c0-4.082 3.321-7.404 7.404-7.404h36.885v10.692c0 16.955 13.781 30.75 30.721 30.75h94.703c16.939 0 30.721-13.795 30.721-30.75v-10.692h36.885c4.083 0 7.404 3.321 7.404 7.404z"/><path d="m181.458 198.529c0-24.004-19.414-43.534-43.277-43.534s-43.278 19.529-43.278 43.534 19.415 43.534 43.278 43.534 43.277-19.53 43.277-43.534zm-66.556 0c0-12.976 10.442-23.533 23.278-23.533 12.835 0 23.277 10.556 23.277 23.533s-10.442 23.533-23.277 23.533c-12.835-.001-23.278-10.557-23.278-23.533z"/></g><g><path d="m413.079 512h-.028c-5.522 0-10-4.478-10-10.001s4.478-10.001 10-10.001 10.015 4.478 10.015 10.001-4.464 10.001-9.987 10.001z"/></g></g></svg>