<svg xmlns="http://www.w3.org/2000/svg" id="Line" height="512" viewBox="0 0 64 64" width="512" class=""><g><path d="m58.876 43.209a1 1 0 0 1 -.253-.664v-3.09a1.006 1.006 0 0 1 .252-.664l2.736-3.085a3 3 0 0 0 .354-3.49l-2.559-4.432a2.992 2.992 0 0 0 -3.2-1.438l-4.041.826a1 1 0 0 1 -.7-.113l-2.675-1.544a1 1 0 0 1 -.449-.551l-1.3-3.913a3 3 0 0 0 -2.85-2.051h-5.117a3 3 0 0 0 -2.847 2.051l-1.3 3.912a1.01 1.01 0 0 1 -.45.551l-2.677 1.545a1 1 0 0 1 -.7.113l-4.039-.826a3 3 0 0 0 -3.2 1.438l-2.561 4.432a3 3 0 0 0 .353 3.49l2.736 3.085a1 1 0 0 1 .252.664v3.09a1 1 0 0 1 -.252.664l-2.736 3.085a3 3 0 0 0 -.353 3.49l2.558 4.432a2.994 2.994 0 0 0 3.2 1.438l4.041-.826a1.009 1.009 0 0 1 .7.113l2.674 1.544a1.008 1.008 0 0 1 .45.551l1.3 3.913a3 3 0 0 0 2.851 2.051h5.117a3 3 0 0 0 2.847-2.051l1.3-3.912a1 1 0 0 1 .449-.551l2.675-1.545a1.016 1.016 0 0 1 .7-.113l4.039.826a2.991 2.991 0 0 0 3.2-1.438l2.559-4.432a3 3 0 0 0 -.354-3.49zm-26.886 5.091a1.5 1.5 0 1 1 .549-2.049 1.5 1.5 0 0 1 -.549 2.049zm.549-12.549a1.5 1.5 0 1 1 -.549-2.051 1.5 1.5 0 0 1 .549 2.05zm9.094-8.25a1.5 1.5 0 1 1 -1.5 1.5 1.5 1.5 0 0 1 1.5-1.501zm0 27a1.5 1.5 0 1 1 1.5-1.5 1.5 1.5 0 0 1 -1.5 1.499zm0-4.5a9 9 0 1 1 9-9 9.011 9.011 0 0 1 -9 8.999zm11.691-2.25a1.5 1.5 0 1 1 -.549-2.049 1.5 1.5 0 0 1 .549 2.048zm-.549-11.451a1.5 1.5 0 1 1 .549-2.049 1.5 1.5 0 0 1 -.549 2.049z" fill="#c4a2fc" data-original="#C4A2FC" class="active-path" style="fill:#54CADC" data-old_color="#c4a2fc"></path><g fill="#151a6a"><path d="m26.633 1a24.986 24.986 0 0 0 -15.39 44.68c.02.013.035.032.056.044a24.931 24.931 0 0 0 24.631 3.476 9.988 9.988 0 0 0 13.906-13.9 24.992 24.992 0 0 0 -23.203-34.3zm-23 25a23 23 0 1 1 44.705 7.6 9.942 9.942 0 0 0 -13.246-.15c-.373-.234-.748-.462-1.139-.664a10 10 0 1 0 -14.645-.005 16.049 16.049 0 0 0 -8.145 10.222 22.945 22.945 0 0 1 -7.53-17.003zm15 0a8 8 0 1 1 8 8 8.009 8.009 0 0 1 -8-8zm-5.739 18.435a14.025 14.025 0 0 1 8.051-10.221 9.952 9.952 0 0 0 11.364.009 14.124 14.124 0 0 1 1.389.716 9.934 9.934 0 0 0 .538 12.767 22.966 22.966 0 0 1 -21.342-3.271zm28.739 4.565a8 8 0 1 1 8-8 8.009 8.009 0 0 1 -8 8z" data-original="#151A6A" class="" style="fill:#151A6A"></path><path d="m44.63 38.363-3.1 4.116-2.19-2.186a1 1 0 0 0 -1.414 1.414l2.186 2.187a2 2 0 0 0 3.012-.21l3.1-4.118a1 1 0 0 0 -1.6-1.2z" data-original="#151A6A" class="" style="fill:#151A6A"></path></g></g> </svg>