<svg height="512" width="512" xmlns="http://www.w3.org/2000/svg">
    <path d="M455.584 184.009c-3.76-47.33-24.207-91.671-58.002-125.438C359.754 20.801 309.472 0 256 0c-51.768 0-100.882 19.663-138.296 55.366-35.795 34.16-57.407 79.642-61.29 128.644C24.213 190.943 0 219.625 0 253.868v65.063C0 358.34 32.061 390.4 71.468 390.4c35.583 0 64.532-28.949 64.532-64.532v-78.937c0-22.059-11.132-41.561-28.067-53.204a7.973 7.973 0 00.629-2.727C112.38 112.4 177.143 50.83 256 50.83c39.425 0 76.496 15.336 104.384 43.181 25.988 25.968 41.279 60.413 43.055 96.99.047.968.273 1.882.63 2.726C387.133 205.37 376 224.872 376 246.932v78.937c0 29.869 20.402 55.055 48 62.376v17.856C424 433.615 401.823 456 374.564 456H303.32c-3.821-22.671-23.579-40-47.321-40-26.467 0-48 21.532-48 48s21.533 48 48 48c23.741 0 43.5-17.329 47.321-40h71.244C410.646 472 440 442.438 440 406.101v-15.714c.178.001.354.014.532.014 39.407 0 71.468-32.061 71.468-71.469v-65.063c0-34.244-24.214-62.927-56.416-69.86zM256 496c-17.645 0-32-14.355-32-32s14.355-32 32-32c16.704 0 30.451 12.868 31.871 29.209-.325.87-.51 1.808-.51 2.791s.186 1.921.51 2.791C286.451 483.132 272.704 496 256 496zM120 246.932v78.937c0 26.761-21.771 48.532-48.532 48.532C40.883 374.4 16 349.518 16 318.932v-65.063c0-30.585 24.883-55.468 55.468-55.468C98.229 198.4 120 220.172 120 246.932zM371.69 82.69C340.78 51.827 299.694 34.83 256 34.83c-86.004 0-156.881 66.088-163.163 151.222a64.184 64.184 0 00-20.231-3.623C81.485 88.436 160.448 16 256 16c49.203 0 95.47 19.14 130.275 53.892 30.411 30.387 49.085 70.075 53.123 112.538a64.168 64.168 0 00-20.239 3.625c-2.892-39.001-19.648-75.567-47.469-103.365zM496 318.932c0 30.586-24.883 55.469-55.468 55.469-26.761 0-48.532-21.771-48.532-48.532v-78.937c0-26.76 21.771-48.531 48.532-48.531 30.585 0 55.468 24.883 55.468 55.468z"/>
</svg>
