<svg height="512pt" viewBox="0 0 512 512" width="512pt" xmlns="http://www.w3.org/2000/svg"><path d="M 197.3 170.7 h -160 c -20.6 0 -37.3 -16.7 -37.3 -37.3 v -96 c 0 -20.6 16.7 -37.3 37.3 -37.3 h 160 c 20.6 0 37.3 16.7 37.3 37.3 v 96 c 0 20.6 -16.7 37.3 -37.3 37.3 z m -160 -138.7 c -2.9 0 -5.3 2.4 -5.3 5.3 v 96 c 0 2.9 2.4 5.3 5.3 5.3 h 160 c 2.9 0 5.3 -2.4 5.3 -5.3 v -96 c 0 -2.9 -2.4 -5.3 -5.3 -5.3 z m 0 0"/><path d="M 197.3 512 h -160 c -20.6 0 -37.3 -16.7 -37.3 -37.3 v -224 c 0 -20.6 16.7 -37.3 37.3 -37.3 h 160 c 20.6 0 37.3 16.7 37.3 37.3 v 224 c 0 20.6 -16.7 37.3 -37.3 37.3 z m -160 -266.7 c -2.9 0 -5.3 2.4 -5.3 5.3 v 224 c 0 2.9 2.4 5.3 5.3 5.3 h 160 c 2.9 0 5.3 -2.4 5.3 -5.3 v -224 c 0 -2.9 -2.4 -5.3 -5.3 -5.3 z m 0 0"/><path d="M 474.7 512 h -160 c -20.6 0 -37.3 -16.7 -37.3 -37.3 v -96 c 0 -20.6 16.7 -37.3 37.3 -37.3 h 160 c 20.6 0 37.3 16.7 37.3 37.3 v 96 c 0 20.6 -16.7 37.3 -37.3 37.3 z m -160 -138.7 c -2.9 0 -5.3 2.4 -5.3 5.3 v 96 c 0 2.9 2.4 5.3 5.3 5.3 h 160 c 2.9 0 5.3 -2.4 5.3 -5.3 v -96 c 0 -2.9 -2.4 -5.3 -5.3 -5.3 z m 0 0"/><path d="M 474.7 298.7 h -160 c -20.6 0 -37.3 -16.7 -37.3 -37.3 v -224 c 0 -20.6 16.7 -37.3 37.3 -37.3 h 160 c 20.6 0 37.3 16.7 37.3 37.3 v 224 c 0 20.6 -16.7 37.3 -37.3 37.3 z m -160 -266.7 c -2.9 0 -5.3 2.4 -5.3 5.3 v 224 c 0 2.9 2.4 5.3 5.3 5.3 h 160 c 2.9 0 5.3 -2.4 5.3 -5.3 v -224 c 0 -2.9 -2.4 -5.3 -5.3 -5.3 z m 0 0"/></svg>